<mxfile host="app.diagrams.net" modified="2024-04-16T14:05:45.642Z" agent="Mozilla/5.0 (Macintosh; Intel Mac OS X 10_15_7) AppleWebKit/537.36 (KHTML, like Gecko) Chrome/123.0.0.0 Safari/537.36" version="24.2.3" etag="YXoN_NxIy7EehSBMilgN" type="github">
  <diagram name="PÃ¡gina-1" id="5paV8PJgCoDb8sMaW7gP">
    <mxGraphModel>
      <root>
        <mxCell id="0" />
        <mxCell id="1" parent="0" />
      </root>
    </mxGraphModel>
  </diagram>
</mxfile>
